<svg xmlns="http://www.w3.org/2000/svg" width="60" height="50" fill="none" viewBox="0 0 60 50"><circle cx="17" cy="33" r="17" fill="#F2C665"/><path fill="#000" d="M35.0003 4.16669C46.5066 4.16669 55.8337 13.4938 55.8337 25C55.8337 36.5063 46.5066 45.8334 35.0003 45.8334C23.4941 45.8334 14.167 36.5063 14.167 25H18.3337C18.3337 34.2042 25.7962 41.6667 35.0003 41.6667C44.2045 41.6667 51.667 34.2042 51.667 25C51.667 15.7959 44.2045 8.33335 35.0003 8.33335C29.2712 8.33335 24.217 11.2229 21.2191 15.625H26.667V19.7917H14.167V7.29169H18.3337V12.5C22.1337 7.43752 28.1857 4.16669 35.0003 4.16669ZM37.0837 14.5834V24.1354L43.8399 30.8917L40.892 33.8396L32.917 25.8604V14.5834H37.0837Z"/></svg>