<svg width="55" height="50" viewBox="0 0 55 50" fill="none" xmlns="http://www.w3.org/2000/svg">
<circle cx="17" cy="33" r="17" fill="#ED5852"/>
<path d="M40.4168 31.7604V46.0771C40.4169 46.2614 40.368 46.4424 40.2752 46.6016C40.1825 46.7609 40.0491 46.8927 39.8887 46.9835C39.7284 47.0744 39.5468 47.1211 39.3625 47.1189C39.1782 47.1166 38.9978 47.0655 38.8397 46.9708L30.0002 41.6666L21.1606 46.9708C21.0023 47.0656 20.8217 47.1167 20.6373 47.1189C20.4528 47.121 20.2711 47.0741 20.1107 46.983C19.9503 46.8919 19.8169 46.7598 19.7243 46.6003C19.6317 46.4407 19.5831 46.2594 19.5835 46.075V31.7625C16.888 29.6043 14.9293 26.6622 13.9782 23.3428C13.0271 20.0233 13.1305 16.4904 14.2741 13.2322C15.4177 9.97404 17.5451 7.15153 20.3622 5.15471C23.1793 3.1579 26.5471 2.08539 30.0002 2.08539C33.4532 2.08539 36.821 3.1579 39.6381 5.15471C42.4552 7.15153 44.5826 9.97404 45.7262 13.2322C46.8698 16.4904 46.9732 20.0233 46.0221 23.3428C45.071 26.6622 43.1124 29.6043 40.4168 31.7625V31.7604ZM23.7502 34.2041V40.5583L30.0002 36.8083L36.2502 40.5583V34.2041C34.2644 35.0073 32.1422 35.419 30.0002 35.4166C27.8582 35.419 25.7359 35.0073 23.7502 34.2041ZM30.0002 31.25C33.3154 31.25 36.4948 29.933 38.839 27.5888C41.1832 25.2446 42.5002 22.0652 42.5002 18.75C42.5002 15.4348 41.1832 12.2553 38.839 9.91113C36.4948 7.56693 33.3154 6.24997 30.0002 6.24997C26.685 6.24997 23.5055 7.56693 21.1613 9.91113C18.8171 12.2553 17.5002 15.4348 17.5002 18.75C17.5002 22.0652 18.8171 25.2446 21.1613 27.5888C23.5055 29.933 26.685 31.25 30.0002 31.25Z" fill="black"/>
</svg>
