<svg width="60" height="50" viewBox="0 0 60 50" fill="none" xmlns="http://www.w3.org/2000/svg">
<circle cx="17" cy="33" r="17" fill="#295E66"/>
<path d="M29.292 35.5909C29.0489 37.2974 28.1982 38.8589 26.8962 39.9885C25.5942 41.1181 23.9283 41.7401 22.2045 41.7401C20.4808 41.7401 18.8149 41.1181 17.5129 39.9885C16.2109 38.8589 15.3602 37.2974 15.117 35.5909H13V11.0455C13 10.503 13.2155 9.9827 13.5991 9.5991C13.9827 9.2155 14.503 9 15.0455 9H43.6818C44.2243 9 44.7446 9.2155 45.1282 9.5991C45.5118 9.9827 45.7273 10.503 45.7273 11.0455V15.1364H51.8636L58 23.4327V35.5909H53.8375C53.5943 37.2974 52.7436 38.8589 51.4416 39.9885C50.1396 41.1181 48.4737 41.7401 46.75 41.7401C45.0263 41.7401 43.3604 41.1181 42.0584 39.9885C40.7564 38.8589 39.9057 37.2974 39.6625 35.5909H29.292ZM41.6364 13.0909H17.0909V29.5568C17.898 28.7329 18.8921 28.1162 19.9888 27.7591C21.0855 27.402 22.2522 27.3152 23.3896 27.506C24.5271 27.6968 25.6016 28.1596 26.5217 28.855C27.4418 29.5504 28.1803 30.4578 28.6743 31.5H40.2802C40.6239 30.778 41.0841 30.1214 41.6364 29.5568V13.0909ZM45.7273 25.3636H53.9091V24.7807L49.8018 19.2273H45.7273V25.3636ZM46.75 37.6364C47.564 37.6364 48.3447 37.313 48.9203 36.7374C49.4958 36.1618 49.8192 35.3812 49.8192 34.5672C49.8192 33.7532 49.4958 32.9725 48.9203 32.3969C48.3447 31.8213 47.564 31.498 46.75 31.498C45.936 31.498 45.1553 31.8213 44.5797 32.3969C44.0042 32.9725 43.6808 33.7532 43.6808 34.5672C43.6808 35.3812 44.0042 36.1618 44.5797 36.7374C45.1553 37.313 45.936 37.6364 46.75 37.6364ZM25.2727 34.5682C25.2727 34.1653 25.1934 33.7663 25.0392 33.394C24.885 33.0218 24.659 32.6836 24.3741 32.3987C24.0892 32.1137 23.7509 31.8877 23.3787 31.7336C23.0064 31.5794 22.6075 31.5 22.2045 31.5C21.8016 31.5 21.4027 31.5794 21.0304 31.7336C20.6582 31.8877 20.3199 32.1137 20.035 32.3987C19.7501 32.6836 19.5241 33.0218 19.3699 33.394C19.2157 33.7663 19.1364 34.1653 19.1364 34.5682C19.1364 35.3819 19.4596 36.1623 20.035 36.7377C20.6104 37.3131 21.3908 37.6364 22.2045 37.6364C23.0183 37.6364 23.7987 37.3131 24.3741 36.7377C24.9495 36.1623 25.2727 35.3819 25.2727 34.5682Z" fill="black"/>
</svg>
