<svg xmlns="http://www.w3.org/2000/svg" width="155" height="44" fill="none" viewBox="0 0 155 44"><path fill="#fff" d="M74.208 33L69.728 25.216H67.292V33H64.1V13.54H70.82C72.3133 13.54 73.5733 13.8013 74.6 14.324C75.6453 14.8467 76.42 15.5467 76.924 16.424C77.4467 17.3013 77.708 18.2813 77.708 19.364C77.708 20.6333 77.3347 21.7907 76.588 22.836C75.86 23.8627 74.7307 24.5627 73.2 24.936L78.016 33H74.208ZM67.292 22.668H70.82C72.0147 22.668 72.9107 22.3693 73.508 21.772C74.124 21.1747 74.432 20.372 74.432 19.364C74.432 18.356 74.1333 17.572 73.536 17.012C72.9387 16.4333 72.0333 16.144 70.82 16.144H67.292V22.668ZM95.7634 17.572V33H92.5714V31.18C92.0674 31.8147 91.4047 32.3187 90.5834 32.692C89.7807 33.0467 88.9221 33.224 88.0074 33.224C86.7941 33.224 85.7021 32.972 84.7314 32.468C83.7794 31.964 83.0234 31.2173 82.4634 30.228C81.9221 29.2387 81.6514 28.044 81.6514 26.644V17.572H84.8154V26.168C84.8154 27.5493 85.1607 28.6133 85.8514 29.36C86.5421 30.088 87.4847 30.452 88.6794 30.452C89.8741 30.452 90.8167 30.088 91.5074 29.36C92.2167 28.6133 92.5714 27.5493 92.5714 26.168V17.572H95.7634ZM98.911 25.216C98.911 23.6667 99.2283 22.2947 99.863 21.1C100.516 19.9053 101.394 18.9813 102.495 18.328C103.615 17.656 104.847 17.32 106.191 17.32C107.404 17.32 108.459 17.5627 109.355 18.048C110.27 18.5147 110.998 19.1027 111.539 19.812V17.572H114.759V33H111.539V30.704C110.998 31.432 110.26 32.0387 109.327 32.524C108.394 33.0093 107.33 33.252 106.135 33.252C104.81 33.252 103.596 32.916 102.495 32.244C101.394 31.5533 100.516 30.6013 99.863 29.388C99.2283 28.156 98.911 26.7653 98.911 25.216ZM111.539 25.272C111.539 24.208 111.315 23.284 110.867 22.5C110.438 21.716 109.868 21.1187 109.159 20.708C108.45 20.2973 107.684 20.092 106.863 20.092C106.042 20.092 105.276 20.2973 104.567 20.708C103.858 21.1 103.279 21.688 102.831 22.472C102.402 23.2373 102.187 24.152 102.187 25.216C102.187 26.28 102.402 27.2133 102.831 28.016C103.279 28.8187 103.858 29.4347 104.567 29.864C105.295 30.2747 106.06 30.48 106.863 30.48C107.684 30.48 108.45 30.2747 109.159 29.864C109.868 29.4533 110.438 28.856 110.867 28.072C111.315 27.2693 111.539 26.336 111.539 25.272ZM126.736 17.32C127.949 17.32 129.032 17.572 129.984 18.076C130.954 18.58 131.71 19.3267 132.252 20.316C132.793 21.3053 133.064 22.5 133.064 23.9V33H129.9V24.376C129.9 22.9947 129.554 21.94 128.864 21.212C128.173 20.4653 127.23 20.092 126.036 20.092C124.841 20.092 123.889 20.4653 123.18 21.212C122.489 21.94 122.144 22.9947 122.144 24.376V33H118.952V17.572H122.144V19.336C122.666 18.7013 123.329 18.2067 124.132 17.852C124.953 17.4973 125.821 17.32 126.736 17.32ZM143.351 17.32C144.546 17.32 145.6 17.5627 146.515 18.048C147.448 18.5147 148.176 19.1027 148.699 19.812V17.572H151.919V33.252C151.919 34.6707 151.62 35.9307 151.023 37.032C150.426 38.152 149.558 39.0293 148.419 39.664C147.299 40.2987 145.955 40.616 144.387 40.616C142.296 40.616 140.56 40.1213 139.179 39.132C137.798 38.1613 137.014 36.836 136.827 35.156H139.991C140.234 35.9587 140.747 36.6027 141.531 37.088C142.334 37.592 143.286 37.844 144.387 37.844C145.675 37.844 146.711 37.452 147.495 36.668C148.298 35.884 148.699 34.7453 148.699 33.252V30.676C148.158 31.404 147.42 32.02 146.487 32.524C145.572 33.0093 144.527 33.252 143.351 33.252C142.007 33.252 140.775 32.916 139.655 32.244C138.554 31.5533 137.676 30.6013 137.023 29.388C136.388 28.156 136.071 26.7653 136.071 25.216C136.071 23.6667 136.388 22.2947 137.023 21.1C137.676 19.9053 138.554 18.9813 139.655 18.328C140.775 17.656 142.007 17.32 143.351 17.32ZM148.699 25.272C148.699 24.208 148.475 23.284 148.027 22.5C147.598 21.716 147.028 21.1187 146.319 20.708C145.61 20.2973 144.844 20.092 144.023 20.092C143.202 20.092 142.436 20.2973 141.727 20.708C141.018 21.1 140.439 21.688 139.991 22.472C139.562 23.2373 139.347 24.152 139.347 25.216C139.347 26.28 139.562 27.2133 139.991 28.016C140.439 28.8187 141.018 29.4347 141.727 29.864C142.455 30.2747 143.22 30.48 144.023 30.48C144.844 30.48 145.61 30.2747 146.319 29.864C147.028 29.4533 147.598 28.856 148.027 28.072C148.475 27.2693 148.699 26.336 148.699 25.272Z"/><path fill="url(#paint0_linear)" fill-rule="evenodd" d="M28.0004 28.0004C35.7323 28.0002 42.0002 21.7322 42.0002 14.0002C42.0002 6.2681 35.7321 0 28 0C20.268 0 13.9999 6.26807 13.9999 14.0001C6.26792 14.0003 0 20.2683 0 28.0003C0 35.7324 6.2681 42.0005 14.0002 42.0005C21.7323 42.0005 28.0003 35.7324 28.0004 28.0004Z" clip-rule="evenodd"/><defs><linearGradient id="paint0_linear" x1="42" x2="0" y1="0" y2="39.5" gradientUnits="userSpaceOnUse"><stop offset=".216" stop-color="#F7B733"/><stop offset="1" stop-color="#FC4A1A"/></linearGradient></defs></svg>