<svg width="614" height="368" viewBox="0 0 614 368" fill="none" xmlns="http://www.w3.org/2000/svg">
<path d="M218.059 25.2637H134.681C130.303 25.2637 126.754 28.8127 126.754 33.1906V140.408C126.754 144.785 130.303 148.334 134.681 148.334H218.059C222.437 148.334 225.986 144.785 225.986 140.408V33.1906C225.986 28.8127 222.437 25.2637 218.059 25.2637Z" fill="#FF8F3C" stroke="black" stroke-width="1.31131" stroke-linecap="round" stroke-linejoin="round"/>
<path d="M194.981 25.2636H185.336V148.448H194.981V25.2636Z" fill="#1C0E0C"/>
<path d="M488.664 205.837H572.042C576.42 205.837 579.969 202.288 579.969 197.911V116.743C579.969 112.365 576.42 108.816 572.042 108.816L488.664 108.816C484.287 108.816 480.738 112.365 480.738 116.743V197.911C480.738 202.288 484.287 205.837 488.664 205.837Z" fill="#C5DCDD" stroke="black" stroke-width="1.31131" stroke-linecap="round" stroke-linejoin="round"/>
<path d="M511.742 205.927H521.386V108.816H511.742V205.927Z" fill="#1C0E0C"/>
<path d="M568.614 294.764C578.033 300.389 614.697 193.872 612.958 187.317C612.964 187.317 551.975 284.826 568.614 294.764Z" fill="#F4F1ED" stroke="#070707" stroke-width="1.31131" stroke-linecap="round" stroke-linejoin="round"/>
<path d="M561.285 325.427C561.285 325.427 571.712 255.637 612.47 189.158" stroke="#070707" stroke-width="1.31131" stroke-linecap="round" stroke-linejoin="round"/>
<path d="M600.627 270.557C600.627 270.557 581.038 321.851 569.848 316.254C558.864 310.76 600.627 270.557 600.627 270.557Z" fill="#F4F1ED" stroke="#070707" stroke-width="1.31131" stroke-linecap="round" stroke-linejoin="round"/>
<path d="M563.986 325.427C563.986 325.427 588.294 287.123 600.631 270.734" stroke="#070707" stroke-width="1.31131" stroke-linecap="round" stroke-linejoin="round"/>
<path d="M572.248 150.988C572.248 150.988 575.526 266.728 561.285 266.728C544.592 266.728 572.248 150.988 572.248 150.988Z" fill="#F4F1ED" stroke="#070707" stroke-width="1.31131" stroke-linecap="round" stroke-linejoin="round"/>
<path d="M558.645 325.427C558.645 325.427 560.057 222.613 572.248 151.777" stroke="#070707" stroke-width="1.31131" stroke-linecap="round" stroke-linejoin="round"/>
<path d="M524.033 214.258C524.033 214.258 532.592 294.698 546.839 292.222C561.285 289.711 524.033 214.258 524.033 214.258Z" fill="#F4F1ED" stroke="#070707" stroke-width="1.31131" stroke-linecap="round" stroke-linejoin="round"/>
<path d="M524.458 215.089L556.593 325.853" stroke="#070707" stroke-width="1.31131" stroke-linecap="round" stroke-linejoin="round"/>
<path d="M560.057 362.747C554.848 362.746 549.852 360.676 546.169 356.992C542.485 353.309 540.416 348.312 540.416 343.103V337.915C540.416 336.705 540.684 335.511 541.2 334.418C541.716 333.324 542.468 332.358 543.401 331.59L548.618 327.293C550.086 326.086 551.926 325.427 553.826 325.427H566.284C568.184 325.427 570.024 326.087 571.492 327.293L576.709 331.59C577.642 332.358 578.394 333.324 578.91 334.418C579.426 335.511 579.694 336.705 579.694 337.915V343.103C579.694 348.312 577.625 353.307 573.943 356.991C570.261 360.674 565.266 362.745 560.057 362.747Z" fill="#F4F1ED" stroke="#070707" stroke-width="1.31131" stroke-linecap="round" stroke-linejoin="round"/>
<path d="M563.506 225.737L571.732 218.144" stroke="#070707" stroke-width="1.31131" stroke-linecap="round" stroke-linejoin="round"/>
<path d="M563.32 229.622L571.547 222.028" stroke="#070707" stroke-width="1.31131" stroke-linecap="round" stroke-linejoin="round"/>
<path d="M563.32 193.102L565.847 199.967" stroke="#070707" stroke-width="1.31131" stroke-linecap="round" stroke-linejoin="round"/>
<path d="M579.989 257.488H590.517" stroke="#070707" stroke-width="1.31131" stroke-linecap="round" stroke-linejoin="round"/>
<path d="M580.729 254.898H591.257" stroke="#070707" stroke-width="1.31131" stroke-linecap="round" stroke-linejoin="round"/>
<path d="M596.872 217.493H605.286" stroke="#070707" stroke-width="1.31131" stroke-linecap="round" stroke-linejoin="round"/>
<path d="M533.501 269.167L541.498 273.827" stroke="#070707" stroke-width="1.31131" stroke-linecap="round" stroke-linejoin="round"/>
<path d="M534.24 272.684L542.424 277.527" stroke="#070707" stroke-width="1.31131" stroke-linecap="round" stroke-linejoin="round"/>
<path d="M575.734 307.206H582.959" stroke="#070707" stroke-width="1.31131" stroke-linecap="round" stroke-linejoin="round"/>
<path d="M503.247 1H202.784C198.304 1 194.672 4.63215 194.672 9.11263V218.446C194.672 222.926 198.304 226.558 202.784 226.558H503.247C507.727 226.558 511.36 222.926 511.36 218.446V9.11263C511.36 4.63215 507.727 1 503.247 1Z" fill="#F4F1ED" stroke="#070707" stroke-width="1.31131" stroke-linecap="round" stroke-linejoin="round"/>
<path d="M194.672 19.7714H511.36" stroke="#070707" stroke-width="1.31131" stroke-linecap="round" stroke-linejoin="round"/>
<path d="M241.811 8.73023H240.207C238.94 8.73023 237.914 9.75666 237.914 11.0228V12.627C237.914 13.8932 238.94 14.9196 240.207 14.9196H241.811C243.077 14.9196 244.103 13.8932 244.103 12.627V11.0228C244.103 9.75666 243.077 8.73023 241.811 8.73023Z" fill="#FFEFF0"/>
<path d="M231.253 8.73023H229.649C228.383 8.73023 227.356 9.75666 227.356 11.0228V12.627C227.356 13.8932 228.383 14.9196 229.649 14.9196H231.253C232.519 14.9196 233.546 13.8932 233.546 12.627V11.0228C233.546 9.75666 232.519 8.73023 231.253 8.73023Z" fill="#FFEFF0"/>
<path d="M220.693 8.73023H219.089C217.822 8.73023 216.796 9.75666 216.796 11.0228V12.627C216.796 13.8932 217.822 14.9196 219.089 14.9196H220.693C221.959 14.9196 222.985 13.8932 222.985 12.627V11.0228C222.985 9.75666 221.959 8.73023 220.693 8.73023Z" fill="#FFEFF0"/>
<path d="M240.534 7.5959H238.93C237.664 7.5959 236.638 8.62233 236.638 9.8885V11.4927C236.638 12.7588 237.664 13.7853 238.93 13.7853H240.534C241.801 13.7853 242.827 12.7588 242.827 11.4927V9.8885C242.827 8.62233 241.801 7.5959 240.534 7.5959Z" fill="#C5DCDD" stroke="black" stroke-width="1.31131" stroke-linecap="round" stroke-linejoin="round"/>
<path d="M229.974 7.5959H228.37C227.104 7.5959 226.078 8.62233 226.078 9.8885V11.4927C226.078 12.7588 227.104 13.7853 228.37 13.7853H229.974C231.241 13.7853 232.267 12.7588 232.267 11.4927V9.8885C232.267 8.62233 231.241 7.5959 229.974 7.5959Z" fill="#EFAF00" stroke="black" stroke-width="1.31131" stroke-linecap="round" stroke-linejoin="round"/>
<path d="M219.416 7.5959H217.812C216.546 7.5959 215.52 8.62233 215.52 9.8885V11.4927C215.52 12.7588 216.546 13.7853 217.812 13.7853H219.416C220.682 13.7853 221.709 12.7588 221.709 11.4927V9.8885C221.709 8.62233 220.682 7.5959 219.416 7.5959Z" fill="#F46F40" stroke="black" stroke-width="1.31131" stroke-linecap="round" stroke-linejoin="round"/>
<path d="M454.783 160.372H254.994C252.869 160.372 251.146 162.095 251.146 164.221V197.843C251.146 199.968 252.869 201.692 254.994 201.692H454.783C456.909 201.692 458.632 199.968 458.632 197.843V164.221C458.632 162.095 456.909 160.372 454.783 160.372Z" stroke="#070707" stroke-width="1.31131" stroke-linecap="round" stroke-linejoin="round"/>
<path d="M422.803 171.855H398.854V190.353H422.803V171.855Z" fill="#FF8F3C" stroke="black" stroke-width="1.31131" stroke-linecap="round" stroke-linejoin="round"/>
<path d="M432.944 190.353H422.803V176.477H427.873L432.944 183.825V190.353Z" fill="#F4F1ED" stroke="#070707" stroke-width="1.31131" stroke-linecap="round" stroke-linejoin="round"/>
<path d="M424.639 179.047H427.227L429.817 182.796H424.639V179.047Z" fill="#F4F1ED" stroke="#070707" stroke-width="1.31131" stroke-linecap="round" stroke-linejoin="round"/>
<path d="M405.918 193.135C407.354 193.135 408.518 191.971 408.518 190.534C408.518 189.098 407.354 187.934 405.918 187.934C404.481 187.934 403.317 189.098 403.317 190.534C403.317 191.971 404.481 193.135 405.918 193.135Z" fill="#F4F1ED" stroke="#070707" stroke-width="1.31131" stroke-linecap="round" stroke-linejoin="round"/>
<path d="M427.839 193.135C429.275 193.135 430.439 191.971 430.439 190.534C430.439 189.098 429.275 187.934 427.839 187.934C426.402 187.934 425.238 189.098 425.238 190.534C425.238 191.971 426.402 193.135 427.839 193.135Z" fill="#F4F1ED" stroke="#070707" stroke-width="1.31131" stroke-linecap="round" stroke-linejoin="round"/>
<path d="M417.995 176.477H410.356" stroke="#070707" stroke-width="1.31131" stroke-linecap="round" stroke-linejoin="round"/>
<path d="M415.239 179.638H407.603" stroke="#070707" stroke-width="1.31131" stroke-linecap="round" stroke-linejoin="round"/>
<path d="M417.995 182.796H410.356" stroke="#070707" stroke-width="1.31131" stroke-linecap="round" stroke-linejoin="round"/>
<path d="M376.688 193.1C382.629 193.1 387.445 188.284 387.445 182.343C387.445 176.402 382.629 171.586 376.688 171.586C370.747 171.586 365.931 176.402 365.931 182.343C365.931 188.284 370.747 193.1 376.688 193.1Z" fill="#F4F1ED" stroke="#070707" stroke-width="1.31131" stroke-linecap="round" stroke-linejoin="round"/>
<path d="M376.734 171.619V193.133" stroke="#070707" stroke-width="1.31131" stroke-linecap="round" stroke-linejoin="round"/>
<path d="M378.636 171.68C378.636 171.68 385.806 180 378.636 193.063V171.68Z" fill="#F4F1ED"/>
<path d="M378.636 171.68C378.636 171.68 385.806 180 378.636 193.063" stroke="#070707" stroke-width="1.31131" stroke-linecap="round" stroke-linejoin="round"/>
<path d="M374.831 171.68C374.831 171.68 367.66 180 374.831 193.063" stroke="#070707" stroke-width="1.31131" stroke-linecap="round" stroke-linejoin="round"/>
<path d="M365.978 182.376H387.49" stroke="#070707" stroke-width="1.31131" stroke-linecap="round" stroke-linejoin="round"/>
<path d="M370.034 190.792C370.034 190.792 376.542 186.88 383.289 190.792" stroke="#070707" stroke-width="1.31131" stroke-linecap="round" stroke-linejoin="round"/>
<path d="M370.034 174.01C370.034 174.01 376.542 177.922 383.289 174.01" stroke="#070707" stroke-width="1.31131" stroke-linecap="round" stroke-linejoin="round"/>
<path d="M345.532 187.63C349.887 187.63 353.417 184.274 353.417 180.134C353.417 175.993 349.887 172.637 345.532 172.637C341.177 172.637 337.646 175.993 337.646 180.134C337.646 184.274 341.177 187.63 345.532 187.63Z" fill="#FFEFF0"/>
<path d="M344.044 187.033C348.527 187.033 352.161 183.579 352.161 179.318C352.161 175.058 348.527 171.604 344.044 171.604C339.561 171.604 335.927 175.058 335.927 179.318C335.927 183.579 339.561 187.033 344.044 187.033Z" fill="#FF8F3C" stroke="black" stroke-width="1.31131" stroke-linecap="round" stroke-linejoin="round"/>
<path d="M348.102 175.461C348.633 175.954 349.056 176.551 349.345 177.214C349.634 177.878 349.784 178.594 349.784 179.318C349.784 180.042 349.634 180.759 349.345 181.422C349.056 182.086 348.633 182.683 348.102 183.176" stroke="#070707" stroke-width="1.31131" stroke-linecap="round" stroke-linejoin="round"/>
<path d="M349.774 187.477L354.8 192.764C355.016 192.986 355.308 193.117 355.617 193.132C355.926 193.147 356.229 193.044 356.466 192.844C356.579 192.748 356.672 192.63 356.738 192.497C356.805 192.364 356.843 192.219 356.851 192.07C356.86 191.921 356.837 191.773 356.786 191.633C356.735 191.493 356.655 191.366 356.553 191.258L351.526 185.971C351.311 185.749 351.019 185.617 350.71 185.602C350.401 185.587 350.097 185.69 349.861 185.89C349.747 185.986 349.655 186.104 349.588 186.238C349.522 186.371 349.483 186.516 349.475 186.665C349.467 186.813 349.489 186.962 349.541 187.102C349.592 187.241 349.671 187.369 349.774 187.477Z" fill="#EFAF00" stroke="black" stroke-width="1.31131" stroke-linecap="round" stroke-linejoin="round"/>
<path d="M323.457 174.814H308.224C307.423 174.814 306.773 175.464 306.773 176.265V191.498C306.773 192.3 307.423 192.949 308.224 192.949H323.457C324.259 192.949 324.908 192.3 324.908 191.498V176.265C324.908 175.464 324.259 174.814 323.457 174.814Z" fill="#C5DCDD" stroke="black" stroke-width="1.31131" stroke-linecap="round" stroke-linejoin="round"/>
<path d="M319.241 174.814H305.368C304.566 174.814 303.917 175.464 303.917 176.265V191.498C303.917 192.3 304.566 192.949 305.368 192.949H319.241C320.043 192.949 320.692 192.3 320.692 191.498V176.265C320.692 175.464 320.043 174.814 319.241 174.814Z" fill="#C5DCDD" stroke="black" stroke-width="1.31131" stroke-linecap="round" stroke-linejoin="round"/>
<path d="M312.578 193.933V173.673" stroke="#070707" stroke-width="1.31131" stroke-linecap="round" stroke-linejoin="round"/>
<path d="M303.025 183.838H325.711" stroke="#070707" stroke-width="1.31131" stroke-linecap="round" stroke-linejoin="round"/>
<path d="M315.297 168.994H316.63C317.35 168.994 318.041 169.28 318.551 169.79C319.06 170.299 319.346 170.99 319.346 171.711V172.095C319.346 172.816 319.06 173.507 318.551 174.016C318.041 174.526 317.35 174.812 316.63 174.812H312.58V171.708C312.58 170.988 312.866 170.297 313.376 169.788C313.885 169.278 314.576 168.992 315.297 168.992V168.994Z" stroke="#070707" stroke-width="1.31131" stroke-linecap="round" stroke-linejoin="round"/>
<path d="M312.547 174.814H308.847C308.278 174.814 307.732 174.588 307.329 174.185C306.927 173.783 306.701 173.237 306.701 172.668V172.364C306.701 171.795 306.927 171.249 307.329 170.847C307.732 170.444 308.278 170.218 308.847 170.218H310.401C310.97 170.218 311.516 170.444 311.918 170.847C312.321 171.249 312.547 171.795 312.547 172.364V174.814V174.814Z" stroke="#070707" stroke-width="1.31131" stroke-linecap="round" stroke-linejoin="round"/>
<path d="M315.961 178.527L312.545 174.814L310.458 176.903" stroke="#070707" stroke-width="1.31131" stroke-linecap="round" stroke-linejoin="round"/>
<path d="M281.033 168.824H281.369C282 168.824 282.604 169.074 283.049 169.519C283.495 169.965 283.745 170.569 283.745 171.199V174.443H278.657V171.199C278.657 170.569 278.908 169.965 279.353 169.519C279.799 169.074 280.403 168.824 281.033 168.824V168.824Z" stroke="#070707" stroke-width="1.31131" stroke-linecap="round" stroke-linejoin="round"/>
<path d="M279.237 168.824H279.574C280.204 168.824 280.808 169.074 281.253 169.519C281.699 169.965 281.949 170.569 281.949 171.199V174.443H276.861V171.199C276.861 170.569 277.112 169.965 277.557 169.519C278.003 169.074 278.607 168.824 279.237 168.824V168.824Z" stroke="#070707" stroke-width="1.31131" stroke-linecap="round" stroke-linejoin="round"/>
<path d="M289.004 193.133H283.509L285.8 174.434H286.713L289.004 193.133Z" fill="#1C0E0C"/>
<path d="M285.8 174.434L283.509 193.133H270.462L272.75 174.434H285.8Z" fill="#FF8F3C" stroke="black" stroke-width="1.31131" stroke-linecap="round" stroke-linejoin="round"/>
<path d="M391.484 84.2354H347.358C345.232 84.2354 343.509 85.9585 343.509 88.0841V132.21C343.509 134.335 345.232 136.058 347.358 136.058H391.484C393.609 136.058 395.332 134.335 395.332 132.21V88.0841C395.332 85.9585 393.609 84.2354 391.484 84.2354Z" fill="#1C0E0C"/>
<path d="M389.329 82.0542H345.203C343.078 82.0542 341.354 83.7774 341.354 85.903V130.029C341.354 132.154 343.078 133.877 345.203 133.877H389.329C391.454 133.877 393.177 132.154 393.177 130.029V85.903C393.177 83.7774 391.454 82.0542 389.329 82.0542Z" fill="#F4F1ED" stroke="#070707" stroke-width="1.31131" stroke-linecap="round" stroke-linejoin="round"/>
<path d="M376.444 128.232H361.696C360.302 128.233 358.926 127.919 357.67 127.314C356.414 126.709 355.311 125.828 354.443 124.737C353.576 123.647 352.965 122.374 352.658 121.014C352.351 119.654 352.355 118.243 352.67 116.885L355.642 106.368C355.745 105.924 355.995 105.527 356.353 105.243C356.71 104.959 357.152 104.804 357.609 104.803H380.517C380.974 104.803 381.417 104.958 381.774 105.242C382.131 105.527 382.382 105.923 382.484 106.368L385.459 116.885C385.772 118.242 385.776 119.652 385.469 121.011C385.162 122.369 384.553 123.641 383.686 124.732C382.82 125.822 381.719 126.703 380.465 127.309C379.211 127.915 377.836 128.231 376.444 128.232Z" fill="#FF8F3C"/>
<path d="M374.662 126.63H359.914C358.52 126.63 357.145 126.316 355.889 125.71C354.634 125.104 353.532 124.223 352.664 123.132C351.797 122.041 351.187 120.769 350.88 119.409C350.572 118.05 350.576 116.639 350.89 115.281L353.865 104.766C353.967 104.321 354.217 103.924 354.574 103.639C354.932 103.354 355.375 103.199 355.832 103.199H378.742C379.199 103.2 379.642 103.355 379.999 103.64C380.356 103.924 380.607 104.321 380.709 104.766L383.682 115.281C383.996 116.638 384 118.049 383.693 119.409C383.386 120.768 382.777 122.04 381.91 123.131C381.043 124.222 379.941 125.104 378.686 125.709C377.431 126.315 376.055 126.63 374.662 126.63V126.63Z" stroke="#070707" stroke-width="1.31131" stroke-linecap="round" stroke-linejoin="round"/>
<path d="M376.216 101.337C376.216 101.961 376.169 102.583 376.073 103.199H358.502C358.407 102.583 358.359 101.961 358.36 101.337C358.36 95.5783 362.355 90.9122 367.286 90.9122C372.216 90.9122 376.216 95.5783 376.216 101.337Z" stroke="#070707" stroke-width="1.31131" stroke-linecap="round" stroke-linejoin="round"/>
<path d="M380.217 103.837C379.916 110.7 374.12 116.175 367.286 116.175C360.635 116.175 354.66 110.711 354.358 103.84C354.547 103.637 354.775 103.476 355.028 103.366C355.282 103.256 355.555 103.199 355.831 103.199H378.74C379.017 103.199 379.291 103.256 379.545 103.366C379.799 103.476 380.028 103.636 380.217 103.837Z" stroke="#070707" stroke-width="1.31131" stroke-linecap="round" stroke-linejoin="round"/>
<path d="M368.178 114.162H366.396V118.356H368.178V114.162Z" stroke="#070707" stroke-width="1.31131" stroke-linecap="round" stroke-linejoin="round"/>
<path d="M382.907 88.4185C386.071 88.4185 388.636 85.8538 388.636 82.6902C388.636 79.5266 386.071 76.962 382.907 76.962C379.744 76.962 377.179 79.5266 377.179 82.6902C377.179 85.8538 379.744 88.4185 382.907 88.4185Z" fill="#C5DCDD" stroke="black" stroke-width="1.31131" stroke-linecap="round" stroke-linejoin="round"/>
<path d="M380.799 82.5241L382.678 85.1796L385.019 80.2009" stroke="#070707" stroke-width="1.31131" stroke-linecap="round" stroke-linejoin="round"/>
<path d="M455.996 49.6759H344.523C342.773 49.6759 341.354 51.0947 341.354 52.8449V69.3499C341.354 71.1001 342.773 72.5189 344.523 72.5189H455.996C457.746 72.5189 459.165 71.1001 459.165 69.3499V52.8449C459.165 51.0947 457.746 49.6759 455.996 49.6759Z" stroke="#070707" stroke-width="1.31131" stroke-linecap="round" stroke-linejoin="round"/>
<path d="M375.978 68.6505H359.768C359.768 68.6505 355.333 61.5301 353.819 61.5301C352.944 61.5301 352.586 68.6527 352.586 68.6527H351.576C351.576 68.6527 349.216 54.1059 351.832 53.2732C353.537 52.7312 358.153 54.1736 359.42 59.8844C360.491 64.6925 366.648 65.5558 367.332 62.3825C367.332 62.3803 375.689 64.8433 375.978 68.6505Z" fill="#F4F1ED" stroke="#070707" stroke-width="1.31131" stroke-linecap="round" stroke-linejoin="round"/>
<path d="M417.561 65.1581C417.533 65.4968 416.923 67.1097 416.923 67.1097L385.762 66.0541V64.3057C385.797 62.0474 386.313 59.8225 387.277 57.7798C388.088 56.0904 389.209 56.5122 389.209 56.5122C389.209 56.5122 392.255 59.491 395.674 59.491C395.972 59.4881 396.264 59.4076 396.521 59.2574C396.779 59.1072 396.993 58.8924 397.142 58.6343C397.343 58.3193 397.5 57.978 397.608 57.6202C397.752 57.1541 397.852 56.6756 397.907 56.1909C397.933 55.9863 398.008 55.791 398.126 55.6216C398.243 55.4521 398.4 55.3134 398.582 55.2171C398.765 55.1209 398.967 55.07 399.174 55.0687C399.38 55.0674 399.583 55.1157 399.767 55.2096C401.109 55.9002 402.737 57.4432 407.099 59.7992C407.318 59.9172 407.536 60.0396 407.777 60.162C413.083 62.9572 417.505 61.9191 417.561 65.1581Z" fill="#F4F1ED" stroke="#070707" stroke-width="1.31131" stroke-linecap="round" stroke-linejoin="round"/>
<path d="M414.058 68.6505C414.961 68.6505 416.06 68.2418 416.652 67.5818C417.019 67.1512 417.283 66.6425 417.424 66.0944C417.564 65.5463 417.578 64.9734 417.463 64.4193H417.439C417.313 65.0784 416.966 65.6745 416.454 66.1084C415.942 66.5422 415.297 66.7877 414.626 66.8038L387.611 66.0104C387.196 65.9974 386.796 65.8561 386.465 65.606C386.134 65.3559 385.888 65.0093 385.762 64.6139V66.4278C385.762 67.6561 386.654 68.6505 387.751 68.6505H414.058Z" fill="#EFAF00" stroke="black" stroke-width="1.31131" stroke-linecap="round" stroke-linejoin="round"/>
<path d="M408.286 60.4374C401.537 58.1295 398.161 57.0848 397.608 57.6399C397.752 57.1738 397.852 56.6953 397.907 56.2106C397.933 56.006 398.008 55.8107 398.126 55.6413C398.243 55.4718 398.4 55.3331 398.582 55.2368C398.765 55.1406 398.968 55.0897 399.174 55.0884C399.38 55.087 399.584 55.1354 399.767 55.2293C401.109 55.909 403.354 57.959 408.286 60.4374Z" fill="#EFAF00" stroke="black" stroke-width="1.31131" stroke-linecap="round" stroke-linejoin="round"/>
<path d="M400.92 57.3907L402.144 55.5287C402.216 55.4198 402.309 55.3266 402.417 55.2547C402.526 55.1828 402.648 55.1338 402.776 55.1105C402.904 55.0872 403.036 55.0901 403.163 55.1192C403.29 55.1483 403.409 55.2028 403.515 55.2795V55.2795C403.703 55.4173 403.834 55.6187 403.885 55.8463C403.936 56.0738 403.902 56.312 403.79 56.5165L403.626 56.816" stroke="#070707" stroke-width="1.31131" stroke-linecap="round" stroke-linejoin="round"/>
<path d="M404.068 58.3546L404.964 57.0149C405.029 56.9214 405.112 56.8419 405.208 56.7814C405.305 56.7209 405.412 56.6805 405.525 56.6627C405.637 56.645 405.752 56.6502 405.862 56.678C405.972 56.7058 406.076 56.7558 406.166 56.8247C406.33 56.9489 406.442 57.1285 406.483 57.3297C406.523 57.531 406.488 57.74 406.385 57.9175L406.062 58.5032" stroke="#070707" stroke-width="1.31131" stroke-linecap="round" stroke-linejoin="round"/>
<path d="M408.585 59.7817C408.944 59.2943 408.856 58.7349 408.498 58.4704C408.401 58.3985 408.291 58.3471 408.174 58.3191C408.057 58.2911 407.936 58.2872 407.817 58.3077C407.699 58.3281 407.585 58.3725 407.484 58.438C407.384 58.5035 407.297 58.5889 407.23 58.689L406.682 59.5872" stroke="#070707" stroke-width="1.31131" stroke-linecap="round" stroke-linejoin="round"/>
<path d="M448.841 54.5758C451.547 54.5758 453.741 52.382 453.741 49.6759C453.741 46.9697 451.547 44.776 448.841 44.776C446.135 44.776 443.941 46.9697 443.941 49.6759C443.941 52.382 446.135 54.5758 448.841 54.5758Z" fill="#F46F40" stroke="black" stroke-width="1.31131" stroke-linecap="round" stroke-linejoin="round"/>
<path d="M447.23 51.3478L450.451 48.004" stroke="#070707" stroke-width="1.31131" stroke-linecap="round" stroke-linejoin="round"/>
<path d="M450.451 51.3478L447.23 48.004" stroke="#070707" stroke-width="1.31131" stroke-linecap="round" stroke-linejoin="round"/>
<path d="M426.937 60.8373C426.937 60.8373 423.44 68.6505 428.519 68.6505H452.097C452.097 68.6505 453.045 64.8237 446.921 63.8424C446.069 63.7047 443.643 63.2392 443.643 63.2392C443.643 63.2392 444.399 66.2989 439.01 66.0563C433.62 65.8137 431.184 61.222 426.937 60.8373Z" fill="#F4F1ED" stroke="#070707" stroke-width="1.31131" stroke-linecap="round" stroke-linejoin="round"/>
<path d="M333.634 53.1661H258.441C256.315 53.1661 254.592 54.8893 254.592 57.0148V132.207C254.592 134.333 256.315 136.056 258.441 136.056H333.634C335.759 136.056 337.482 134.333 337.482 132.207V57.0148C337.482 54.8893 335.759 53.1661 333.634 53.1661Z" fill="#1C0E0C"/>
<path d="M330.187 49.6759H254.995C252.869 49.6759 251.146 51.399 251.146 53.5245V128.717C251.146 130.843 252.869 132.566 254.995 132.566H330.187C332.313 132.566 334.036 130.843 334.036 128.717V53.5245C334.036 51.399 332.313 49.6759 330.187 49.6759Z" fill="#FF8F3C" stroke="black" stroke-width="1.31131" stroke-linecap="round" stroke-linejoin="round"/>
<path d="M323.425 83.1667L312.421 92.4879V117.462H275.783V92.4967L264.781 83.1667L273.224 72.6762C275.783 70.4492 279.68 70.0995 282.51 70.0995H306.73C312.412 70.0995 313.853 71.1682 315.328 72.3309L323.425 83.1667Z" fill="#1C0E0C"/>
<path d="M322.51 81.4729L311.307 90.9602V116.387H273.991V90.9602L262.791 81.4729L271.384 70.7639C273.991 68.4953 277.96 68.1413 280.841 68.1413H305.5C311.285 68.1413 312.749 69.234 314.242 70.412L322.51 81.4729Z" fill="#F4F1ED" stroke="#070707" stroke-width="1.31131" stroke-linecap="round" stroke-linejoin="round"/>
<path d="M273.996 90.9602V81.969" stroke="#070707" stroke-width="1.31131" stroke-linecap="round" stroke-linejoin="round"/>
<path d="M311.289 91.0455V82.0542" stroke="#070707" stroke-width="1.31131" stroke-linecap="round" stroke-linejoin="round"/>
<path d="M292.647 76.4287V116.38" stroke="#070707" stroke-width="1.31131" stroke-linecap="round" stroke-linejoin="round"/>
<path d="M304.232 68.15H295.833C295.754 68.1494 295.677 68.1735 295.613 68.219C295.549 68.2645 295.5 68.329 295.475 68.4035L292.647 76.4287L289.67 68.4691C289.635 68.3752 289.572 68.2944 289.489 68.2374C289.407 68.1803 289.309 68.1499 289.209 68.15H280.93L284.954 64.7253C285.854 63.9582 286.997 63.5367 288.18 63.5364H296.983C298.166 63.5366 299.31 63.958 300.211 64.7253L304.232 68.15Z" fill="#F4F1ED" stroke="#070707" stroke-width="1.31131" stroke-linecap="round" stroke-linejoin="round"/>
<path d="M286.685 64.7494L289.55 68.15L286.272 72.8292L280.926 68.15L285.113 64.616C285.225 64.5213 285.354 64.4495 285.494 64.4049C285.634 64.3603 285.781 64.3438 285.927 64.3561C286.073 64.3685 286.215 64.4096 286.345 64.4771C286.475 64.5446 286.59 64.6371 286.685 64.7494Z" fill="#F4F1ED" stroke="#070707" stroke-width="1.31131" stroke-linecap="round" stroke-linejoin="round"/>
<path d="M298.48 64.7493L295.613 68.15L298.891 72.8292L304.237 68.15L300.049 64.616C299.938 64.5216 299.808 64.4501 299.669 64.4057C299.53 64.3613 299.383 64.3448 299.237 64.3572C299.091 64.3696 298.949 64.4106 298.82 64.4779C298.69 64.5452 298.574 64.6374 298.48 64.7493Z" fill="#F4F1ED" stroke="#070707" stroke-width="1.31131" stroke-linecap="round" stroke-linejoin="round"/>
<path d="M298.25 82.6903H305.681V89.7386C305.681 90.1055 305.535 90.4573 305.276 90.7168C305.017 90.9762 304.665 91.122 304.298 91.122H299.634C299.267 91.122 298.915 90.9762 298.656 90.7168C298.396 90.4573 298.25 90.1055 298.25 89.7386V82.6903Z" fill="#F4F1ED" stroke="#070707" stroke-width="1.31131" stroke-linecap="round" stroke-linejoin="round"/>
<path d="M290.365 80.2621C290.864 80.2621 291.268 79.858 291.268 79.3595C291.268 78.861 290.864 78.4569 290.365 78.4569C289.867 78.4569 289.462 78.861 289.462 79.3595C289.462 79.858 289.867 80.2621 290.365 80.2621Z" fill="#1C0E0C"/>
<path d="M290.365 87.1706C290.864 87.1706 291.268 86.7665 291.268 86.268C291.268 85.7695 290.864 85.3653 290.365 85.3653C289.867 85.3653 289.462 85.7695 289.462 86.268C289.462 86.7665 289.867 87.1706 290.365 87.1706Z" fill="#1C0E0C"/>
<path d="M290.365 94.079C290.864 94.079 291.268 93.6748 291.268 93.1763C291.268 92.6778 290.864 92.2737 290.365 92.2737C289.867 92.2737 289.462 92.6778 289.462 93.1763C289.462 93.6748 289.867 94.079 290.365 94.079Z" fill="#1C0E0C"/>
<path d="M290.365 100.987C290.864 100.987 291.268 100.583 291.268 100.085C291.268 99.5863 290.864 99.1822 290.365 99.1822C289.867 99.1822 289.462 99.5863 289.462 100.085C289.462 100.583 289.867 100.987 290.365 100.987Z" fill="#1C0E0C"/>
<path d="M290.365 107.896C290.864 107.896 291.268 107.492 291.268 106.993C291.268 106.495 290.864 106.091 290.365 106.091C289.867 106.091 289.462 106.495 289.462 106.993C289.462 107.492 289.867 107.896 290.365 107.896Z" fill="#1C0E0C"/>
<path d="M319.018 60.3674C323.979 60.3674 328 56.3458 328 51.3849C328 46.4241 323.979 42.4025 319.018 42.4025C314.057 42.4025 310.035 46.4241 310.035 51.3849C310.035 56.3458 314.057 60.3674 319.018 60.3674Z" fill="#F4F1ED" stroke="#070707" stroke-width="1.31131" stroke-linecap="round" stroke-linejoin="round"/>
<path d="M316.703 47.3679C315.551 47.3679 314.775 48.2596 314.775 49.5841C314.775 50.9937 315.483 51.8373 316.668 51.8373C317.852 51.8373 318.578 50.9631 318.578 49.5382C318.576 48.1984 317.861 47.3679 316.703 47.3679ZM316.687 50.9981C315.896 50.9981 315.778 50.1042 315.778 49.5709C315.778 48.6967 316.102 48.2072 316.687 48.2072C317.432 48.2072 317.588 48.9371 317.588 49.5513C317.588 50.5129 317.284 50.9981 316.687 50.9981Z" fill="#1C0E0C"/>
<path d="M321.607 50.5522C320.474 50.5522 319.681 51.4636 319.681 52.7662C319.681 54.1562 320.407 55.0194 321.574 55.0194C322.741 55.0194 323.484 54.1452 323.484 52.7203C323.484 51.3827 322.765 50.5522 321.607 50.5522ZM321.593 54.1802C320.802 54.1802 320.684 53.2885 320.684 52.7552C320.684 51.881 321.014 51.3893 321.593 51.3893C322.337 51.3893 322.492 52.1214 322.492 52.7334C322.492 53.6622 322.164 54.1802 321.593 54.1802Z" fill="#1C0E0C"/>
<path d="M322.144 47.4685L317.126 54.9386H316.125L321.139 47.4685H322.144Z" fill="#1C0E0C"/>
<path d="M456.322 84.2353H412.196C410.071 84.2353 408.348 85.9585 408.348 88.084V132.21C408.348 134.335 410.071 136.058 412.196 136.058H456.322C458.447 136.058 460.171 134.335 460.171 132.21V88.084C460.171 85.9585 458.447 84.2353 456.322 84.2353Z" fill="#1C0E0C"/>
<path d="M454.167 82.0542H410.042C407.916 82.0542 406.193 83.7774 406.193 85.9029V130.028C406.193 132.154 407.916 133.877 410.042 133.877H454.167C456.293 133.877 458.016 132.154 458.016 130.028V85.9029C458.016 83.7774 456.293 82.0542 454.167 82.0542Z" fill="#C5DCDD" stroke="black" stroke-width="1.31131" stroke-linecap="round" stroke-linejoin="round"/>
<path d="M446.325 101.982H422.695C421.894 101.982 421.244 102.631 421.244 103.433V123.992C421.244 124.794 421.894 125.443 422.695 125.443H446.325C447.127 125.443 447.776 124.794 447.776 123.992V103.433C447.776 102.631 447.127 101.982 446.325 101.982Z" fill="white"/>
<path d="M447.805 102.517V123.006C447.805 123.326 447.742 123.643 447.62 123.938C447.498 124.234 447.318 124.502 447.092 124.729C446.866 124.955 446.598 125.134 446.302 125.256C446.007 125.379 445.69 125.441 445.37 125.441H439.469C440.115 125.441 440.734 125.185 441.191 124.728C441.647 124.271 441.904 123.652 441.904 123.006V102.517C441.904 102.197 441.841 101.88 441.719 101.584C441.597 101.289 441.418 101.02 441.192 100.793C440.966 100.567 440.697 100.387 440.402 100.264C440.106 100.142 439.789 100.078 439.469 100.078H445.37C445.69 100.078 446.007 100.142 446.303 100.264C446.598 100.387 446.867 100.567 447.093 100.793C447.319 101.02 447.498 101.289 447.62 101.584C447.742 101.88 447.805 102.197 447.805 102.517Z" stroke="#070707" stroke-width="1.31131" stroke-linecap="round" stroke-linejoin="round"/>
<path d="M441.91 102.517V123.006C441.91 123.652 441.654 124.271 441.197 124.728C440.741 125.185 440.121 125.441 439.476 125.441H420.899C420.578 125.443 420.26 125.381 419.964 125.259C419.667 125.137 419.397 124.958 419.17 124.732C418.943 124.506 418.763 124.237 418.64 123.941C418.516 123.645 418.453 123.327 418.453 123.006V102.517C418.453 101.871 418.71 101.251 419.167 100.793C419.624 100.336 420.243 100.079 420.89 100.078H439.467C439.788 100.077 440.105 100.14 440.402 100.262C440.698 100.384 440.968 100.564 441.195 100.79C441.422 101.017 441.602 101.286 441.725 101.582C441.848 101.879 441.911 102.196 441.91 102.517Z" stroke="#070707" stroke-width="1.31131" stroke-linecap="round" stroke-linejoin="round"/>
<path d="M430.561 126.58V98.2467" stroke="#070707" stroke-width="1.31131" stroke-linecap="round" stroke-linejoin="round"/>
<path d="M417.439 112.7H448.69" stroke="#070707" stroke-width="1.31131" stroke-linecap="round" stroke-linejoin="round"/>
<path d="M434.359 91.9415H436.224C437.232 91.9415 438.198 92.3419 438.911 93.0546C439.624 93.7674 440.024 94.7341 440.024 95.7421V96.2797C440.024 97.2877 439.624 98.2544 438.911 98.9672C438.198 99.6799 437.232 100.08 436.224 100.08H430.561V95.7399C430.562 94.7327 430.962 93.7669 431.674 93.0546C432.386 92.3424 433.352 91.9421 434.359 91.9415V91.9415Z" stroke="#070707" stroke-width="1.31131" stroke-linecap="round" stroke-linejoin="round"/>
<path d="M430.517 100.076H425.344C424.548 100.076 423.785 99.7598 423.222 99.1971C422.659 98.6343 422.343 97.8711 422.343 97.0753V96.6491C422.343 95.8532 422.659 95.09 423.222 94.5273C423.785 93.9645 424.548 93.6484 425.344 93.6484H427.516C428.312 93.6484 429.075 93.9645 429.638 94.5273C430.201 95.09 430.517 95.8532 430.517 96.6491V100.076V100.076Z" stroke="#070707" stroke-width="1.31131" stroke-linecap="round" stroke-linejoin="round"/>
<path d="M435.292 105.273L430.517 100.08L427.595 103.002" stroke="#070707" stroke-width="1.31131" stroke-linecap="round" stroke-linejoin="round"/>
<path d="M56.3782 92.6693C61.0362 92.6693 64.8121 88.8933 64.8121 84.2354C64.8121 79.5775 61.0362 75.8015 56.3782 75.8015C51.7203 75.8015 47.9443 79.5775 47.9443 84.2354C47.9443 88.8933 51.7203 92.6693 56.3782 92.6693Z" stroke="#070707" stroke-width="1.31131" stroke-linecap="round" stroke-linejoin="round"/>
<path d="M77.3833 50.6768C78.8595 50.6768 80.0562 49.4801 80.0562 48.0039C80.0562 46.5277 78.8595 45.3311 77.3833 45.3311C75.9071 45.3311 74.7104 46.5277 74.7104 48.0039C74.7104 49.4801 75.9071 50.6768 77.3833 50.6768Z" stroke="#070707" stroke-width="1.31131" stroke-linecap="round" stroke-linejoin="round"/>
<path d="M366.704 273.77H367.731C369.65 273.77 371.49 274.532 372.846 275.889C374.203 277.245 374.965 279.085 374.965 281.004V287.998H359.472V281.004C359.472 279.086 360.234 277.246 361.59 275.889C362.946 274.533 364.786 273.77 366.704 273.77V273.77Z" stroke="#070707" stroke-width="1.31131" stroke-linecap="round" stroke-linejoin="round"/>
<path d="M371.93 273.77H372.957C374.875 273.77 376.715 274.532 378.072 275.889C379.429 277.245 380.191 279.085 380.191 281.004V287.998H364.689V281.004C364.689 280.053 364.876 279.112 365.24 278.234C365.604 277.356 366.138 276.558 366.81 275.886C367.483 275.215 368.281 274.682 369.159 274.319C370.038 273.955 370.979 273.769 371.93 273.77Z" stroke="#070707" stroke-width="1.31131" stroke-linecap="round" stroke-linejoin="round"/>
<path d="M403.474 362.733H382.722L391.519 287.984H394.677L403.474 362.733Z" fill="#1C0E0C"/>
<path d="M391.519 287.984L382.722 362.733H334.499L343.297 287.984H391.519Z" stroke="#070707" stroke-width="1.31131" stroke-linecap="round" stroke-linejoin="round"/>
<path d="M385.364 310.806H378.3L379.201 300.518C379.299 299.562 379.744 298.675 380.451 298.024C381.158 297.374 382.08 297.005 383.041 296.987C383.493 296.978 383.942 297.066 384.358 297.245C384.773 297.424 385.146 297.689 385.451 298.024C385.756 298.358 385.986 298.753 386.127 299.183C386.267 299.614 386.314 300.069 386.264 300.518L385.364 310.806Z" fill="white"/>
<path d="M384.743 310.185H377.68L378.58 299.898C378.678 298.941 379.122 298.053 379.83 297.402C380.537 296.751 381.459 296.382 382.42 296.364V296.364C382.873 296.356 383.322 296.444 383.737 296.623C384.153 296.802 384.525 297.068 384.83 297.402C385.135 297.737 385.366 298.132 385.506 298.562C385.646 298.993 385.693 299.448 385.644 299.898L384.743 310.185Z" stroke="#070707" stroke-width="1.31131" stroke-linecap="round" stroke-linejoin="round"/>
<path d="M382.675 299.744C382.992 299.44 383.023 298.958 382.744 298.667C382.466 298.376 381.982 298.386 381.665 298.69C381.348 298.993 381.316 299.476 381.595 299.767C381.874 300.058 382.357 300.048 382.675 299.744Z" stroke="#070707" stroke-width="1.31131" stroke-linecap="round" stroke-linejoin="round"/>
<path d="M382.195 299.131L383.201 287.453C383.235 287.063 383.413 286.7 383.702 286.436C383.99 286.171 384.367 286.024 384.759 286.024V286.024C385.174 286.024 385.572 286.189 385.865 286.482C386.159 286.776 386.324 287.174 386.324 287.589" stroke="#070707" stroke-width="1.31131" stroke-linecap="round" stroke-linejoin="round"/>
<path d="M381.736 306.467C381.916 306.439 382.083 306.356 382.215 306.229C382.328 306.119 382.398 305.971 382.411 305.814C382.423 305.743 382.418 305.67 382.397 305.602C382.375 305.533 382.339 305.47 382.289 305.418C382.162 305.309 382.013 305.229 381.852 305.182L381.489 305.075C381.27 305.016 381.056 304.935 380.853 304.833C380.688 304.746 380.551 304.614 380.458 304.452C380.357 304.257 380.32 304.036 380.351 303.818C380.37 303.502 380.511 303.205 380.744 302.99C381.013 302.761 381.352 302.629 381.706 302.616H382.077C382.259 302.63 382.437 302.674 382.604 302.745C382.749 302.81 382.876 302.911 382.971 303.038C383.045 303.131 383.105 303.235 383.148 303.346C383.183 303.439 383.199 303.538 383.194 303.637C383.183 303.735 383.136 303.826 383.063 303.892C382.99 303.959 382.895 303.996 382.796 303.998C382.753 304 382.71 303.994 382.669 303.98C382.629 303.965 382.591 303.943 382.559 303.914C382.527 303.885 382.501 303.85 382.482 303.812C382.464 303.773 382.453 303.73 382.451 303.687C382.435 303.574 382.386 303.467 382.311 303.381C382.236 303.294 382.137 303.231 382.027 303.2L381.655 303.187C381.51 303.225 381.373 303.291 381.253 303.381C381.202 303.427 381.16 303.483 381.131 303.545C381.101 303.608 381.085 303.675 381.083 303.744C381.072 303.806 381.075 303.87 381.092 303.931C381.109 303.992 381.139 304.048 381.181 304.096C381.291 304.193 381.418 304.267 381.557 304.315L381.92 304.422C382.156 304.489 382.344 304.548 382.484 304.603C382.62 304.657 382.744 304.738 382.849 304.841C382.96 304.949 383.044 305.082 383.093 305.228C383.147 305.386 383.167 305.554 383.15 305.72C383.129 305.943 383.054 306.157 382.932 306.345C382.806 306.543 382.632 306.707 382.427 306.821C382.199 306.949 381.945 307.024 381.684 307.04H381.31C381.107 307.02 380.909 306.965 380.724 306.878C380.572 306.803 380.435 306.699 380.322 306.572C380.225 306.46 380.151 306.33 380.104 306.19C380.061 306.065 380.045 305.932 380.055 305.801C380.064 305.702 380.111 305.611 380.187 305.547C380.263 305.474 380.365 305.433 380.471 305.434C380.548 305.431 380.625 305.453 380.689 305.497C380.747 305.538 380.786 305.6 380.799 305.67C380.827 305.794 380.863 305.917 380.906 306.037C380.939 306.126 380.993 306.206 381.063 306.271C381.149 306.348 381.252 306.404 381.365 306.432L381.736 306.467Z" fill="#070707"/>
<path d="M381.456 307.481H381.441C381.421 307.48 381.401 307.474 381.383 307.465C381.365 307.455 381.349 307.442 381.336 307.427C381.323 307.411 381.313 307.393 381.307 307.373C381.301 307.354 381.299 307.333 381.301 307.313L381.738 302.23C381.742 302.189 381.762 302.151 381.793 302.125C381.825 302.099 381.866 302.086 381.907 302.09C381.947 302.094 381.985 302.113 382.012 302.145C382.038 302.176 382.052 302.217 382.049 302.258L381.611 307.339C381.608 307.378 381.59 307.414 381.562 307.441C381.533 307.467 381.495 307.482 381.456 307.481Z" fill="#070707"/>
<path d="M349.198 298.307H349.944C351.335 298.307 352.669 298.859 353.653 299.843C354.636 300.827 355.189 302.161 355.189 303.552V308.618H343.949V303.554C343.948 302.865 344.084 302.182 344.348 301.545C344.612 300.908 344.998 300.329 345.486 299.842C345.973 299.355 346.552 298.968 347.189 298.705C347.826 298.441 348.509 298.306 349.198 298.307V298.307Z" stroke="#070707" stroke-width="1.31131" stroke-linecap="round" stroke-linejoin="round"/>
<path d="M352.99 298.307H353.735C355.126 298.307 356.461 298.859 357.444 299.843C358.428 300.827 358.981 302.161 358.981 303.552V308.618H347.738V303.554C347.738 302.163 348.291 300.829 349.275 299.845C350.258 298.861 351.592 298.309 352.984 298.309L352.99 298.307Z" stroke="#070707" stroke-width="1.31131" stroke-linecap="round" stroke-linejoin="round"/>
<path d="M375.877 362.858H360.821L367.205 308.622H369.495L375.877 362.858Z" fill="#F4F1ED" stroke="#070707" stroke-width="1.31131" stroke-linecap="round" stroke-linejoin="round"/>
<path d="M367.205 308.622L360.821 362.858H325.831L332.214 308.622H367.205Z" fill="#F4F1ED" stroke="#070707" stroke-width="1.31131" stroke-linecap="round" stroke-linejoin="round"/>
<path d="M127.085 187.173H65.182C62.4892 187.173 60.3062 189.356 60.3062 192.049V261.708C60.3062 264.401 62.4892 266.584 65.182 266.584H127.085C129.777 266.584 131.96 264.401 131.96 261.708V192.049C131.96 189.356 129.777 187.173 127.085 187.173Z" fill="#C5DCDD" stroke="black" stroke-width="1.31131" stroke-linecap="round" stroke-linejoin="round"/>
<path d="M120.567 194.685C119.785 193.903 118.788 193.371 117.704 193.155C116.619 192.939 115.495 193.05 114.473 193.473C113.452 193.896 112.578 194.613 111.964 195.532C111.349 196.452 111.021 197.533 111.021 198.638V214.927H122.204V198.638C122.205 197.904 122.061 197.177 121.78 196.498C121.499 195.82 121.087 195.203 120.567 194.685V194.685ZM116.613 198.804C116.375 198.804 116.141 198.734 115.943 198.601C115.745 198.469 115.59 198.28 115.499 198.06C115.407 197.839 115.383 197.597 115.43 197.363C115.477 197.129 115.591 196.914 115.76 196.745C115.929 196.576 116.144 196.461 116.378 196.415C116.612 196.368 116.854 196.392 117.075 196.483C117.295 196.575 117.484 196.729 117.616 196.928C117.749 197.126 117.82 197.359 117.82 197.598C117.819 197.917 117.693 198.222 117.468 198.448C117.243 198.674 116.938 198.802 116.62 198.804H116.613Z" stroke="#070707" stroke-width="1.31131" stroke-linecap="round" stroke-linejoin="round"/>
<path d="M119.815 193.644C119.033 192.862 118.037 192.328 116.952 192.112C115.867 191.896 114.742 192.006 113.72 192.43C112.698 192.853 111.824 193.57 111.21 194.49C110.596 195.41 110.268 196.492 110.269 197.598V213.887H121.454V197.598C121.455 196.864 121.311 196.136 121.029 195.458C120.748 194.779 120.335 194.163 119.815 193.644ZM115.861 197.764C115.622 197.765 115.388 197.694 115.189 197.562C114.99 197.429 114.835 197.24 114.743 197.02C114.651 196.799 114.627 196.556 114.673 196.321C114.72 196.087 114.835 195.871 115.004 195.702C115.173 195.533 115.388 195.417 115.623 195.37C115.857 195.324 116.1 195.347 116.321 195.439C116.542 195.53 116.731 195.685 116.864 195.884C116.997 196.083 117.068 196.316 117.068 196.556C117.068 196.876 116.941 197.183 116.714 197.409C116.488 197.636 116.181 197.764 115.861 197.764Z" fill="#F4F1ED" stroke="#070707" stroke-width="1.31131" stroke-linecap="round" stroke-linejoin="round"/>
<path d="M115.862 196.101V186.386C115.862 185.645 116.156 184.934 116.681 184.41C117.205 183.886 117.916 183.591 118.657 183.591C119.024 183.591 119.388 183.663 119.727 183.803C120.067 183.944 120.375 184.149 120.635 184.409C120.895 184.669 121.101 184.977 121.242 185.316C121.382 185.655 121.455 186.019 121.455 186.386V186.666" stroke="#070707" stroke-width="1.31131" stroke-linecap="round" stroke-linejoin="round"/>
<path d="M118.135 206.034C118.036 205.8 117.887 205.591 117.698 205.422C117.52 205.26 117.313 205.132 117.088 205.046C116.861 204.96 116.555 204.864 116.17 204.758H116.144V202.832H116.17C116.351 202.883 116.515 202.982 116.645 203.117C116.775 203.253 116.866 203.421 116.909 203.604C116.93 203.744 117.001 203.871 117.11 203.962C117.219 204.053 117.357 204.1 117.499 204.096C117.575 204.097 117.651 204.082 117.722 204.054C117.792 204.025 117.856 203.982 117.91 203.927C117.964 203.876 118.008 203.813 118.037 203.744C118.066 203.675 118.081 203.6 118.08 203.525C118.075 203.365 118.036 203.208 117.967 203.064C117.883 202.887 117.774 202.723 117.643 202.577C117.475 202.376 117.262 202.218 117.023 202.113C116.751 202.002 116.463 201.933 116.17 201.908H116.144V201.32C116.144 201.245 116.114 201.172 116.061 201.119C116.008 201.066 115.935 201.036 115.86 201.036C115.785 201.036 115.712 201.066 115.659 201.119C115.606 201.172 115.576 201.245 115.576 201.32V201.91C115.032 201.925 114.512 202.135 114.111 202.502C113.832 202.813 113.658 203.204 113.613 203.619C113.569 204.035 113.656 204.454 113.862 204.817C114.031 205.074 114.265 205.281 114.54 205.418C114.872 205.578 115.219 205.706 115.576 205.8V207.96C115.394 207.913 115.226 207.826 115.082 207.706C114.964 207.604 114.868 207.478 114.8 207.337C114.739 207.201 114.667 207.007 114.581 206.753C114.549 206.641 114.479 206.545 114.382 206.48C114.277 206.412 114.154 206.378 114.028 206.382C113.947 206.379 113.866 206.393 113.791 206.424C113.715 206.455 113.647 206.502 113.591 206.561C113.537 206.613 113.493 206.675 113.463 206.744C113.433 206.813 113.417 206.888 113.417 206.963C113.419 207.174 113.463 207.383 113.545 207.577C113.642 207.801 113.778 208.006 113.948 208.182C114.142 208.384 114.372 208.548 114.625 208.668C114.925 208.803 115.244 208.888 115.571 208.921V209.358C115.571 209.434 115.601 209.506 115.655 209.559C115.708 209.612 115.78 209.642 115.856 209.642C115.931 209.642 116.003 209.612 116.056 209.559C116.11 209.506 116.14 209.434 116.14 209.358V208.904H116.166C116.57 208.878 116.963 208.759 117.313 208.556C117.621 208.375 117.875 208.114 118.045 207.8C118.21 207.496 118.295 207.156 118.292 206.81C118.294 206.543 118.24 206.279 118.135 206.034ZM114.951 204.244C114.817 204.085 114.745 203.884 114.748 203.676C114.751 203.469 114.828 203.269 114.966 203.114C115.143 202.971 115.349 202.867 115.569 202.808V204.585C115.343 204.513 115.132 204.397 114.951 204.244ZM116.889 207.623C116.695 207.825 116.44 207.958 116.164 208.001H116.137V205.96H116.164C116.43 206.034 116.679 206.161 116.896 206.334C116.981 206.413 117.047 206.51 117.09 206.618C117.133 206.726 117.152 206.843 117.145 206.959C117.149 207.205 117.058 207.443 116.889 207.623Z" fill="#070707"/>
<path d="M53.6466 213.946H43.9998C43.9998 213.946 34.7332 205.739 30.6834 200.898C30.1304 200.232 29.6244 199.528 29.1689 198.791C28.7428 198.099 28.5085 197.305 28.49 196.492C28.4714 195.679 28.6693 194.875 29.0633 194.164C29.4573 193.452 30.0333 192.858 30.7323 192.442C31.4313 192.027 32.2283 191.804 33.0416 191.798H33.1465C42.9376 191.787 53.6532 209.533 53.6466 213.946Z" fill="#1C0E0C"/>
<path d="M58.9683 213.946H52.1801C52.1801 213.946 45.6607 208.172 42.8108 204.767C42.422 204.298 42.0664 203.803 41.7465 203.285C41.4453 202.797 41.2793 202.239 41.2656 201.666C41.2519 201.093 41.3909 200.527 41.6684 200.026C41.9459 199.525 42.3519 199.107 42.8446 198.814C43.3373 198.522 43.899 198.366 44.4718 198.363H44.5439C51.4327 198.363 58.9705 210.842 58.9683 213.946Z" fill="#F4F1ED"/>
<path d="M38.7897 182.529C55.028 182.358 60.6754 205.562 60.3236 213.946H53.6468C53.6468 209.533 42.9378 191.796 33.1467 191.796C29.6739 191.796 27.6261 194.89 28.6729 197.696C28.6729 197.688 21.9437 182.706 38.7897 182.529Z" fill="#FF8F3C" stroke="black" stroke-width="1.31131" stroke-linecap="round" stroke-linejoin="round"/>
<path d="M88.4401 210.654C89.5853 207.914 88.0445 204.753 85.1924 203.895C71.9679 199.906 58.4461 213.948 58.4461 213.948H55.1372C55.1372 213.948 62.0762 193.494 82.5305 196.534C87.0086 197.198 92.8876 201.51 88.4401 210.654Z" fill="#FF8F3C" stroke="black" stroke-width="1.31131" stroke-linecap="round" stroke-linejoin="round"/>
<path d="M88.4401 210.7C87.826 212.138 87.0741 213.482 86.5387 213.946H79.0205C79.0205 213.946 80.8192 213.336 82.5589 210.7C84.6723 207.498 83.6931 203.538 80.7995 203.269C82.2917 203.284 83.7753 203.496 85.2121 203.899C88.0707 204.76 89.6115 207.96 88.4401 210.7Z" fill="#1C0E0C"/>
<path d="M91.3333 213.255H42.1986C36.2395 213.255 31.4087 218.086 31.4087 224.045V281.651C31.4087 287.61 36.2395 292.441 42.1986 292.441H91.3333C97.2924 292.441 102.123 287.61 102.123 281.651V224.045C102.123 218.086 97.2924 213.255 91.3333 213.255Z" fill="#1C0E0C"/>
<path d="M78.1154 213.255H31.035C25.0759 213.255 20.2451 218.086 20.2451 224.045V281.651C20.2451 287.61 25.0759 292.441 31.035 292.441H78.1154C84.0745 292.441 88.9053 287.61 88.9053 281.651V224.045C88.9053 218.086 84.0745 213.255 78.1154 213.255Z" fill="#F4F1ED" stroke="#070707" stroke-width="1.31131" stroke-linecap="round" stroke-linejoin="round"/>
<path d="M181.609 198.735H167.597C164.177 198.733 160.846 199.827 158.092 201.857C155.339 203.887 153.309 206.746 152.299 210.014L129.788 282.838C128.396 287.339 125.599 291.277 121.807 294.073C118.015 296.87 113.427 298.379 108.715 298.379H30.795C27.6872 298.379 24.6689 299.42 22.2226 301.337C19.7762 303.253 18.0428 305.935 17.2995 308.952L14.4583 324.054C14.0498 325.712 14.0237 327.44 14.3821 329.109C14.7405 330.778 15.4739 332.343 16.5268 333.687C17.5797 335.03 18.9245 336.117 20.4594 336.864C21.9942 337.61 23.6789 337.998 25.3859 337.998H120.384" stroke="#070707" stroke-width="1.31131" stroke-linecap="round" stroke-linejoin="round"/>
<path d="M108.785 298.379H36.5103C31.7995 298.377 27.2129 296.868 23.4222 294.071C19.6314 291.275 16.8355 287.338 15.4441 282.838L1 224.598H147.801L129.88 282.814C128.491 287.323 125.692 291.268 121.895 294.069C118.099 296.871 113.504 298.381 108.785 298.379Z" stroke="#070707" stroke-width="1.31131" stroke-linecap="round" stroke-linejoin="round"/>
<path d="M60.7455 298.379L37.9331 224.598" stroke="#070707" stroke-width="1.31131" stroke-linecap="round" stroke-linejoin="round"/>
<path d="M80.0063 298.379L102.819 224.598" stroke="#070707" stroke-width="1.31131" stroke-linecap="round" stroke-linejoin="round"/>
<path d="M137.131 259.085H9.87549" stroke="#070707" stroke-width="1.31131" stroke-linecap="round" stroke-linejoin="round"/>
<path d="M109.701 367.205C115.855 367.205 120.845 362.216 120.845 356.061C120.845 349.906 115.855 344.917 109.701 344.917C103.546 344.917 98.5566 349.906 98.5566 356.061C98.5566 362.216 103.546 367.205 109.701 367.205Z" fill="#C5DCDD"/>
<path d="M34.0404 367.205C40.1951 367.205 45.1844 362.216 45.1844 356.061C45.1844 349.906 40.1951 344.917 34.0404 344.917C27.8858 344.917 22.8965 349.906 22.8965 356.061C22.8965 362.216 27.8858 367.205 34.0404 367.205Z" fill="#C5DCDD"/>
<path d="M107.387 365.245C113.541 365.245 118.531 360.255 118.531 354.101C118.531 347.946 113.541 342.957 107.387 342.957C101.232 342.957 96.2427 347.946 96.2427 354.101C96.2427 360.255 101.232 365.245 107.387 365.245Z" stroke="#070707" stroke-width="1.31131" stroke-linecap="round" stroke-linejoin="round"/>
<path d="M31.724 365.245C37.8787 365.245 42.868 360.255 42.868 354.101C42.868 347.946 37.8787 342.957 31.724 342.957C25.5694 342.957 20.5801 347.946 20.5801 354.101C20.5801 360.255 25.5694 365.245 31.724 365.245Z" stroke="#070707" stroke-width="1.31131" stroke-linecap="round" stroke-linejoin="round"/>
<path d="M118.69 270.061H107.463C105.714 270.061 104.296 271.479 104.296 273.228V289.272C104.296 291.021 105.714 292.439 107.463 292.439H118.69C120.439 292.439 121.857 291.021 121.857 289.272V273.228C121.857 271.479 120.439 270.061 118.69 270.061Z" fill="#F46F40" stroke="black" stroke-width="1.31131" stroke-linecap="round" stroke-linejoin="round"/>
<path d="M480.738 164.715H444.804V172.637H480.738V164.715Z" fill="#1C0E0C"/>
<path d="M476.014 355.3C477.244 358.511 478.267 363.286 473.957 363.286H450.653C450.653 363.286 450.585 359.735 456.027 359.261C465.239 358.459 468.137 351.157 468.266 347.701C468.53 329.085 461.272 272.281 460.064 261.295C467.919 261.053 475.737 260.122 483.429 258.513C479.48 271.886 487.981 282.857 488.644 296.302C489.299 309.711 478.614 339.431 475.52 349.598C475.264 351.412 475.461 353.851 476.014 355.3Z" fill="#FCBE9F" stroke="#070707" stroke-width="1.31131" stroke-linecap="round" stroke-linejoin="round"/>
<path d="M476.014 355.3C476.014 355.3 479.578 363.286 474.396 363.286H450.297C450.297 363.286 449.329 360.266 455.586 359.261C456.46 359.123 458.947 358.644 458.947 358.644C458.947 358.644 458.173 360.878 463.683 360.635C469.193 360.393 471.673 355.7 476.014 355.3Z" fill="#EFAF00" stroke="black" stroke-width="1.31131" stroke-linecap="round" stroke-linejoin="round"/>
<path d="M482.756 261.358C475.49 263.393 468.044 264.719 460.523 265.318L460.057 261.295C467.911 261.053 475.729 260.122 483.42 258.513L482.756 261.358Z" fill="#1C0E0C"/>
<path d="M413.361 253.637C421.113 256.645 429.177 258.778 437.402 259.994L430.277 271.641C430.277 273.947 440.422 284.623 443.213 294.152C446.583 305.683 443.39 337.788 444.455 342.933C445.121 346.148 441.78 352.837 438.512 355.934C436.545 357.794 434.049 357.101 434.049 357.101C434.049 357.101 439.332 346.539 436.827 338.321C427.596 308.004 409.508 273.411 409.508 268.603C409.508 266.007 410.839 261.089 412.819 255.217L413.361 253.637Z" fill="#FCBE9F" stroke="#070707" stroke-width="1.31131" stroke-linecap="round" stroke-linejoin="round"/>
<path d="M444.09 343.481C445.454 342.745 450.12 346.869 449.881 349.163L438.598 363.118H427.032C427.032 363.118 425.843 358.31 434.041 357.125C442.239 355.941 438.807 346.34 444.09 343.481Z" fill="#EFAF00" stroke="black" stroke-width="1.31131" stroke-linecap="round" stroke-linejoin="round"/>
<path d="M413.361 253.637C421.113 256.645 429.177 258.778 437.402 259.994L434.755 264.346C427.384 262.785 419.929 259.553 412.815 255.245L413.361 253.637Z" fill="#1C0E0C"/>
<path d="M492.324 256.214C492.324 256.214 452.602 269.694 411.808 253.023C411.808 253.023 441.607 186.684 444.088 181.718C446.568 176.753 446.398 168.771 446.398 168.771C446.398 168.771 445.152 156.008 441.428 151.75C437.704 147.493 435.577 142.704 437.527 136.67C439.476 130.636 441.778 118.749 441.778 118.749L449.943 116.087L478.735 115.554C478.735 115.554 482.297 119.706 481.53 127.511C480.874 134.286 472.373 153.37 479.742 168.765C483.11 174.261 494.971 184.168 496.405 201.495C498.26 223.853 492.324 256.214 492.324 256.214Z" fill="#EFAF00" stroke="black" stroke-width="1.31131" stroke-linecap="round" stroke-linejoin="round"/>
<path d="M447.689 125.347C447.534 119.276 442.789 115.67 437.992 121.671C434.596 125.915 425.836 140.89 420.827 150.474C415.897 142.997 404.958 130.042 398.874 124.34C399.079 121.822 397.864 114.859 397.125 114.339C396.31 113.764 392.466 108.14 392.466 108.14C392.466 108.14 391.049 108.901 392.361 111.229C393.891 113.93 393.552 114.787 393.552 114.787C393.552 114.787 391.834 115.069 391.626 116.203C391.419 117.337 390.079 116.539 389.465 118.262C389.107 119.269 388.287 119.66 388.516 120.666C388.735 121.608 393.405 125.535 395.812 126.215C399.14 136.192 409.489 159.032 419.221 165.078C421.321 166.044 424.833 164.962 429.333 159.614C448.094 137.337 447.823 130.474 447.689 125.347Z" fill="#FCBE9F" stroke="#070707" stroke-width="1.31131" stroke-linecap="round" stroke-linejoin="round"/>
<path d="M469.613 93.1916C469.436 97.803 468.758 104.943 479.73 117.315C485.613 123.948 467.709 125.865 458.121 120.851C451.528 117.407 449.945 116.094 449.945 116.094C449.945 116.094 456.143 115.541 458.556 109.318C460.222 105.024 458.567 100.139 457.732 93.1872L469.613 93.1916Z" fill="#FCBE9F" stroke="#070707" stroke-width="1.31131" stroke-linecap="round" stroke-linejoin="round"/>
<path d="M466.79 94.0942C466.853 94.6843 465.638 105.38 459.173 107.341C459.798 103.931 458.257 98.1614 457.912 94.0876L466.79 94.0942Z" fill="#1C0E0C"/>
<path d="M475.839 94.6777C477.317 101.778 498.309 99.8356 499.714 117.267" stroke="#070707" stroke-width="0.874206" stroke-linecap="round" stroke-linejoin="round"/>
<path d="M477.365 130.024C469.595 126.466 458.76 115.875 469.462 99.6279C468.236 99.1712 466.944 98.3166 466.544 96.7584C465.723 93.5216 454.631 89.7144 454.124 82.9262C453.954 80.6511 455.672 75.1611 467.325 75.7927C478.925 76.4243 479.979 90.3701 476.285 94.5706C476.278 94.5761 476.272 94.5828 476.268 94.5903C477.9 102.508 500.138 102.552 496.954 122.069C496.066 127.519 487.735 134.771 477.365 130.024Z" fill="#1C0E0C"/>
<path d="M466.05 96.7037C466.022 97.2916 464.918 101.125 457.111 102.956C455.695 103.291 451.96 103.394 451.866 102.519C451.761 101.492 451.132 97.4359 451.073 95.2657C451.055 94.5969 448.854 93.0976 449.257 92.6124C450.491 91.1219 452.675 89.4107 452.723 88.7965C453.088 84.1807 454.819 81.6084 456.517 81.7002C457.487 81.7526 456.255 90.3155 466.052 93.1151C466.052 93.1151 468.837 91.6705 469.252 93.196C469.667 94.7215 466.05 96.7037 466.05 96.7037Z" fill="#FCBE9F" stroke="#070707" stroke-width="1.31131" stroke-linecap="round" stroke-linejoin="round"/>
<path d="M236.929 353.753C236.929 353.753 233.309 361.278 235.794 363.999H267.716C267.716 363.999 267.539 358.729 259.848 357.899C252.948 357.154 248.746 353.747 248.746 353.747L236.929 353.753Z" fill="#1C0E0C"/>
<path d="M268.078 363.999H235.302C235.062 363.999 234.867 364.193 234.867 364.434V365.457C234.867 365.697 235.062 365.891 235.302 365.891H268.078C268.318 365.891 268.513 365.697 268.513 365.457V364.434C268.513 364.193 268.318 363.999 268.078 363.999Z" fill="#1C0E0C"/>
<path d="M250.824 357.648L251.897 355.228C251.959 355.087 252.049 354.959 252.162 354.853C252.275 354.748 252.409 354.666 252.554 354.614C252.7 354.561 252.855 354.539 253.009 354.549C253.164 354.558 253.315 354.599 253.453 354.669V354.669C253.7 354.794 253.894 355.004 253.997 355.261C254.101 355.518 254.108 355.804 254.017 356.065L253.868 356.474" stroke="#070707" stroke-width="1.31131" stroke-linecap="round" stroke-linejoin="round"/>
<path d="M253.978 358.773L255.016 356.293C255.07 356.169 255.149 356.057 255.248 355.965C255.348 355.873 255.464 355.802 255.592 355.756C255.719 355.711 255.854 355.692 255.989 355.7C256.125 355.708 256.256 355.744 256.377 355.805C256.593 355.914 256.762 356.098 256.853 356.322C256.943 356.547 256.949 356.796 256.869 357.025L256.779 357.368" stroke="#070707" stroke-width="1.31131" stroke-linecap="round" stroke-linejoin="round"/>
<path d="M257.175 359.783L257.857 357.276C257.895 357.147 257.96 357.027 258.046 356.923C258.132 356.819 258.239 356.734 258.359 356.673C258.479 356.612 258.61 356.576 258.745 356.567C258.879 356.557 259.014 356.576 259.142 356.62V356.62C259.614 356.787 259.924 357.241 259.852 357.906" stroke="#070707" stroke-width="1.31131" stroke-linecap="round" stroke-linejoin="round"/>
<path d="M180.085 353.753C180.085 353.753 176.466 361.278 178.951 363.999H209.091C209.091 363.999 208.912 358.729 201.224 357.899C194.322 357.154 190.121 353.747 190.121 353.747L180.085 353.753Z" fill="#1C0E0C"/>
<path d="M209.452 363.999H178.459C178.219 363.999 178.024 364.193 178.024 364.434V365.457C178.024 365.697 178.219 365.891 178.459 365.891H209.452C209.692 365.891 209.887 365.697 209.887 365.457V364.434C209.887 364.193 209.692 363.999 209.452 363.999Z" fill="#1C0E0C"/>
<path d="M192.188 357.648L193.261 355.228C193.324 355.087 193.414 354.959 193.528 354.854C193.641 354.748 193.775 354.667 193.92 354.615C194.066 354.562 194.221 354.54 194.375 354.549C194.53 354.559 194.681 354.599 194.819 354.669V354.669C195.067 354.794 195.26 355.004 195.363 355.261C195.467 355.518 195.473 355.804 195.381 356.065L195.232 356.474" stroke="#070707" stroke-width="1.31131" stroke-linecap="round" stroke-linejoin="round"/>
<path d="M195.353 358.773L196.391 356.293C196.445 356.169 196.524 356.057 196.624 355.965C196.723 355.873 196.839 355.802 196.967 355.756C197.094 355.711 197.229 355.692 197.365 355.7C197.5 355.708 197.631 355.744 197.752 355.805V355.805C197.968 355.915 198.137 356.098 198.227 356.323C198.318 356.547 198.324 356.796 198.244 357.025L198.154 357.368" stroke="#070707" stroke-width="1.31131" stroke-linecap="round" stroke-linejoin="round"/>
<path d="M198.548 359.783L199.232 357.276C199.27 357.147 199.335 357.027 199.421 356.923C199.507 356.819 199.614 356.734 199.734 356.673C199.854 356.612 199.986 356.576 200.12 356.566C200.255 356.557 200.39 356.576 200.517 356.62V356.62C200.989 356.787 201.299 357.241 201.227 357.906" stroke="#070707" stroke-width="1.31131" stroke-linecap="round" stroke-linejoin="round"/>
<path d="M245.83 191.19C248.234 200.151 249.06 230.269 249.838 274.653C250.404 306.856 253.202 352.702 253.202 352.702C253.202 352.702 245.845 355.897 232.842 353.414C232.842 353.414 220.384 312.37 224.823 282.47C225.531 277.68 218.797 249.305 218.797 249.305C218.797 249.305 191.99 346.084 191.99 354.004C191.99 354.004 181.541 356.013 175.334 354.004C175.334 354.004 165.958 309.916 180.833 284.238C188.843 270.411 187.007 219.838 187.225 215.762C187.962 201.385 194.997 190.558 194.997 190.558L245.83 191.19Z" fill="#C5DCDD" stroke="black" stroke-width="1.31131" stroke-linecap="round" stroke-linejoin="round"/>
<path d="M218.797 249.661C217.91 245.758 213.288 217.534 212.046 216.461C210.805 215.388 208.676 213.978 207.258 212.558" stroke="#070707" stroke-width="1.31131" stroke-linecap="round" stroke-linejoin="round"/>
<path d="M246.671 195.565C228.068 205.479 199.825 200.627 193.091 193.998C193.666 192.82 194.301 191.672 194.993 190.558L245.834 191.19C246.198 192.631 246.477 194.092 246.671 195.565Z" fill="#1C0E0C"/>
<path d="M196.112 174.194C195.966 175.154 195.758 176.103 195.489 177.036C188.153 176.918 181.666 175.845 178.552 172.855C169.491 164.156 176.301 142.889 176.727 141.602C179.898 143.711 184.459 146.067 190.959 148.248C193.89 160.063 196.569 171.05 196.112 174.194Z" fill="#FCBE9F" stroke="#070707" stroke-width="1.31131" stroke-linecap="round" stroke-linejoin="round"/>
<path d="M176.736 141.596C179.907 143.705 184.468 146.061 190.968 148.243C191.643 150.968 192.305 153.645 192.919 156.196C184.177 152.29 179.745 147.633 175.92 144.449L176.736 141.596Z" fill="#1C0E0C"/>
<path d="M311.363 102.557C310.925 101.986 310.187 101.87 310.038 101.634C309.89 101.398 309.94 100.804 309.503 100.421C309.066 100.039 308.425 100.098 308.152 99.8749C307.879 99.652 308.065 99.0007 307.544 98.4434C307.024 97.8861 306.281 97.956 306.115 97.7877C305.949 97.6194 308.849 92.5687 307.746 91.9152C306.642 91.2618 300.992 98.4237 299.878 100.102C297.583 103.562 297.561 107.904 297.255 109.461C297.231 109.477 297.209 109.496 297.19 109.517C296.304 110.582 275.369 131.335 271.645 138.255L268.33 133.228L249.294 146.71C249.294 146.71 263.13 166.817 275.367 162.562C286.95 158.534 300.122 119.396 302.553 114.009C306.548 113.22 309.89 108.781 310.978 106.757C312.392 104.148 311.8 103.125 311.363 102.557Z" fill="#FCBE9F" stroke="#070707" stroke-width="1.31131" stroke-linecap="round" stroke-linejoin="round"/>
<path d="M269.254 134.642C266.068 141.993 260.616 148.133 253.695 152.168C252.122 150.435 250.654 148.611 249.298 146.704L268.327 133.232L269.254 134.642Z" fill="#1C0E0C"/>
<path d="M190.958 148.243C193.889 160.062 196.569 171.048 196.112 174.193C195.155 180.791 189.853 188.919 192.338 190.803C199.303 196.116 221.785 201.635 247.642 192.552C247.642 192.552 244.331 186.31 247.911 161.38C248.44 157.695 249.137 152.565 249.845 146.925H249.86C261.476 142.842 270.478 130.713 270.478 130.713C270.478 130.713 264.831 115.716 258.598 110.663C254.664 107.472 234.284 101.754 232.619 100.784L208.436 100.463C206.823 100.598 189.549 106.073 182.448 111.303C175.986 116.063 169.927 135.06 169.927 135.06C169.927 135.06 173.265 142.298 190.958 148.243Z" fill="#F4F1ED" stroke="#070707" stroke-width="1.31131" stroke-linecap="round" stroke-linejoin="round"/>
<path d="M207.712 100.611C209.642 99.7131 216.38 92.7829 215.318 84.4145L230.304 86.1192C230.304 86.1192 231.801 96.5179 234.284 101.768C229.024 103.096 223.614 103.738 218.19 103.675C209.249 103.562 207.712 100.611 207.712 100.611Z" fill="#FCBE9F" stroke="#070707" stroke-width="1.31131" stroke-linecap="round" stroke-linejoin="round"/>
<path d="M232.398 96.5464C230.892 96.3715 227.682 95.7137 225.979 94.1423C223.206 91.5852 219.314 85.9335 219.276 84.8997L230.304 86.1193C230.304 86.1193 231.231 91.3339 232.398 96.5464Z" fill="#1C0E0C"/>
<path d="M222.895 84.9784C222.895 84.9784 225.253 89.1811 227.67 89.7865C230.088 90.3919 235.628 89.9199 237.313 88.9123C238.353 88.2916 238.039 83.136 237.84 81.263C237.8 80.9024 240.646 79.6982 240.462 78.5989C240.268 77.4318 237.042 74.665 236.758 73.1154C235.923 68.5674 234.791 64.2728 234.419 64.1133C233.816 63.8488 224.329 64.452 223.208 67.0419C222.086 69.6317 223.498 77.6504 223.498 77.6504C223.498 77.6504 220.439 75.8604 219.521 78.2514C218.161 81.7548 222.895 84.9784 222.895 84.9784Z" fill="#FCBE9F" stroke="#070707" stroke-width="1.31131" stroke-linecap="round" stroke-linejoin="round"/>
<path d="M240.631 61.2175C243.927 63.8794 238.972 74.8813 228.925 67.0703" stroke="black" stroke-width="1.31131" stroke-linecap="round" stroke-linejoin="round"/>
<path d="M204.71 69.7126C206.646 66.2573 210.454 69.1465 210.454 69.1465" stroke="black" stroke-width="1.31131" stroke-linecap="round" stroke-linejoin="round"/>
<path d="M237.578 80.6598C237.578 80.6598 233.862 83.6824 231.766 83.9381C229.67 84.1938 227.931 77.8951 227.284 75.1108C225.833 68.646 226.003 66.0627 232.011 68.2679C239.936 71.1768 241.522 61.3748 238.465 59.7247C236.518 58.6757 235.574 59.0013 232.829 60.3804C229.769 61.9277 223.289 56.8049 215.583 59.0691C208.346 61.1934 209.45 68.4974 209.45 68.4974C209.45 68.4974 206.596 67.9794 206.078 72.1516C205.669 75.4517 210.248 81.2979 213.777 87.837C214.767 89.6707 219.567 88.5757 220.749 86.7268C220.749 86.7268 222.331 84.0277 220.351 80.7516C218.728 78.0678 221.523 75.9019 224.307 78.2426C223.898 80.12 223.013 85.1903 224.69 87.8064C227.196 91.7185 240.117 92.302 240.438 90.1274C240.76 87.9528 237.578 80.6598 237.578 80.6598Z" fill="#1C0E0C"/>
<path d="M466.27 96.2513C468.038 96.2513 469.471 94.8178 469.471 93.0495C469.471 91.2812 468.038 89.8477 466.27 89.8477C464.501 89.8477 463.068 91.2812 463.068 93.0495C463.068 94.8178 464.501 96.2513 466.27 96.2513Z" fill="#FCBE9F"/>
<path d="M465.053 95.0034C465.053 95.0034 464.683 93.7423 465.024 92.5993C465.141 92.1851 465.369 91.8109 465.684 91.5179C465.999 91.2249 466.388 91.0243 466.81 90.9383" stroke="#070707" stroke-width="0.874206" stroke-linecap="round" stroke-linejoin="round"/>
<path d="M466.81 93.432L465.024 92.6036" stroke="#070707" stroke-width="0.874206" stroke-linecap="round" stroke-linejoin="round"/>
<path d="M468.648 98.1265C469.47 98.1265 470.136 97.4601 470.136 96.6381C470.136 95.8162 469.47 95.1498 468.648 95.1498C467.826 95.1498 467.16 95.8162 467.16 96.6381C467.16 97.4601 467.826 98.1265 468.648 98.1265Z" fill="#F7F3EF" stroke="#070707" stroke-width="0.874206" stroke-linecap="round" stroke-linejoin="round"/>
<path d="M454.446 90.1471C454.848 90.1471 455.174 89.6696 455.174 89.0806C455.174 88.4916 454.848 88.0141 454.446 88.0141C454.045 88.0141 453.719 88.4916 453.719 89.0806C453.719 89.6696 454.045 90.1471 454.446 90.1471Z" fill="#1C0E0C"/>
<path d="M451.878 96.6381C451.878 96.6381 453.526 96.7845 454.446 95.6699" stroke="#070707" stroke-width="0.874206" stroke-linecap="round" stroke-linejoin="round"/>
<path d="M226.071 84.6965C224.622 85.0984 223.073 84.9083 221.764 84.1679C220.455 83.4275 219.494 82.1974 219.092 80.7483C218.69 79.2992 218.88 77.7498 219.62 76.4409C220.361 75.132 221.591 74.1709 223.04 73.7689" fill="#FCBE9F"/>
<path d="M226.071 84.6965C224.622 85.0984 223.073 84.9083 221.764 84.1679C220.455 83.4275 219.494 82.1974 219.092 80.7483C218.69 79.2992 218.88 77.7498 219.62 76.4409C220.361 75.132 221.591 74.1709 223.04 73.7689" stroke="#070707" stroke-width="1.31131" stroke-linecap="round" stroke-linejoin="round"/>
<path d="M221.101 78.577C221.101 78.577 223.363 77.1061 225.059 79.7069L221.101 78.577Z" fill="#FCBE9F"/>
<path d="M221.101 78.577C221.101 78.577 223.363 77.1061 225.059 79.7069" stroke="#070707" stroke-width="1.31131" stroke-linecap="round" stroke-linejoin="round"/>
<path d="M223.643 78.3869L222.478 80.6598" stroke="#070707" stroke-width="1.31131" stroke-linecap="round" stroke-linejoin="round"/>
<path d="M234.195 76.016C234.684 75.9207 234.963 75.2471 234.819 74.5114C234.675 73.7757 234.163 73.2566 233.675 73.3519C233.187 73.4472 232.908 74.1209 233.052 74.8565C233.195 75.5922 233.707 76.1113 234.195 76.016Z" fill="#1C0E0C"/>
<path d="M232.914 70.3609L230.836 71.4838C230.451 71.6915 230.308 72.1715 230.516 72.5559C230.723 72.9404 231.203 73.0836 231.588 72.876L233.666 71.753C234.051 71.5453 234.194 71.0653 233.986 70.6809C233.779 70.2965 233.299 70.1532 232.914 70.3609Z" fill="#1C0E0C"/>
<path d="M185.016 125.76L190.959 148.243" stroke="#070707" stroke-width="1.31131" stroke-linecap="round" stroke-linejoin="round"/>
<path d="M258.17 112.581C258.17 112.581 245.474 113.355 243.538 127.115" stroke="#070707" stroke-width="1.31131" stroke-linecap="round" stroke-linejoin="round"/>
</svg>
